<?xml version="1.0" encoding="utf-8"?>
<!-- Generator: Adobe Illustrator 18.1.1, SVG Export Plug-In . SVG Version: 6.00 Build 0)  -->
<!DOCTYPE svg PUBLIC "-//W3C//DTD SVG 1.1//EN" "http://www.w3.org/Graphics/SVG/1.1/DTD/svg11.dtd">
<svg version="1.1" id="Layer_1" xmlns="http://www.w3.org/2000/svg" xmlns:xlink="http://www.w3.org/1999/xlink" x="0px" y="0px"
	 width="970px" height="500px" viewBox="0 0 970 500" enable-background="new 0 0 970 500" xml:space="preserve">
<g>
	<defs>
		<rect id="SVGID_1_" x="0" width="970" height="500"/>
	</defs>
	<clipPath id="SVGID_2_">
		<use xlink:href="#SVGID_1_"  overflow="visible"/>
	</clipPath>
	<g clip-path="url(#SVGID_2_)">
		<g opacity="0.9">
			<polygon opacity="0.6" fill="#FFCE44" enable-background="new    " points="749.72,521.64 784.52,259.24 599.64,334.2 			"/>
			<polygon opacity="0.8" fill="#8F4492" enable-background="new    " points="323.32,187.16 461.32,195.24 297.88,70.04 			"/>
			<polygon opacity="0.6" fill="#C54190" enable-background="new    " points="463.24,353.96 461.32,195.24 323.32,187.16 			"/>
			<polygon opacity="0.6" fill="#FFCE44" enable-background="new    " points="463.24,353.96 599.64,334.2 461.32,195.24 			"/>
			<polygon opacity="0.8" fill="#57B99C" enable-background="new    " points="461.32,195.24 599.64,334.2 581.72,86.92 			"/>
			<polygon opacity="0.6" fill="#FFCE44" enable-background="new    " points="784.52,259.24 858.36,95.32 581.72,86.92 			"/>
			<polygon fill="#FFCE44" points="599.64,334.2 784.52,259.24 581.72,86.92 			"/>
			<polygon opacity="0.6" fill="#57B99C" enable-background="new    " points="581.72,86.92 757.16,-16.52 571.8,-116.04 			"/>
			<polygon fill="#57B99C" points="858.36,95.32 757.16,-16.52 581.72,86.92 			"/>
			<polygon opacity="0.8" fill="#57B99C" enable-background="new    " points="757.16,-16.52 858.36,95.32 776.12,-141.72 			"/>
			<polygon opacity="0.8" fill="#57B99C" enable-background="new    " points="581.72,86.92 571.8,-116.04 406.04,-79 			"/>
			<polygon fill="#00A2D4" points="297.88,70.04 406.04,-79 348.12,-95.96 			"/>
			<polygon opacity="0.4" fill="#00A2D4" enable-background="new    " points="427.16,41.72 581.72,86.92 406.04,-79 			"/>
			<polygon fill="#57B99C" points="297.88,70.04 427.16,41.72 406.04,-79 			"/>
			<polygon fill="#57B99C" points="461.32,195.24 581.72,86.92 427.16,41.72 			"/>
			<polygon opacity="0.6" fill="#2D519E" enable-background="new    " points="461.32,195.24 427.16,41.72 297.88,70.04 			"/>
			<polygon opacity="0.6" fill="#E03469" enable-background="new    " points="550.04,492.36 599.64,334.2 463.24,353.96 			"/>
			<polygon opacity="0.8" fill="#E03469" enable-background="new    " points="550.04,492.36 749.72,521.64 599.64,334.2 			"/>
			<polygon opacity="0.6" fill="#E03469" enable-background="new    " points="477.08,648.28 550.04,492.36 366.92,412.84 			"/>
			<polygon opacity="0.8" fill="#E03469" enable-background="new    " points="550.04,492.36 463.24,353.96 366.92,412.84 			"/>
			<polygon opacity="0.6" fill="#E03469" enable-background="new    " points="366.92,412.84 463.24,353.96 323.32,187.16 			"/>
			<polygon opacity="0.6" fill="#8F4492" enable-background="new    " points="252.44,363.16 366.92,412.84 323.32,187.16 			"/>
			<polygon opacity="0.8" fill="#8F4492" enable-background="new    " points="252.44,363.16 323.32,187.16 221.8,170.28 			"/>
			<polygon opacity="0.8" fill="#2F4293" enable-background="new    " points="221.8,170.28 323.32,187.16 297.88,70.04 			"/>
			<polygon opacity="0.6" fill="#1068B0" enable-background="new    " points="221.8,170.28 297.88,70.04 74.84,38.52 			"/>
			<polygon fill="#00B2EB" points="74.84,38.52 297.88,70.04 201.48,-140.52 			"/>
			<polygon opacity="0.4" fill="#00A2D4" enable-background="new    " points="297.88,70.04 348.12,-95.96 201.48,-140.52 			"/>
			<polygon fill="#489881" points="858.36,95.32 997.64,-138.12 776.12,-141.72 			"/>
			<polygon fill="#57B99C" points="858.36,95.32 981,7 997.64,-138.12 			"/>
			<polygon opacity="0.8" fill="#57B99C" enable-background="new    " points="1054.28,120.44 981,7 858.36,95.32 			"/>
			<polygon fill="#FFCE44" points="1008.04,195.64 1054.28,120.44 858.36,95.32 			"/>
			<polygon fill="#57B99C" points="784.52,259.24 1008.04,195.64 858.36,95.32 			"/>
			<polygon fill="#FFCE44" points="901.16,285.32 1008.04,195.64 784.52,259.24 			"/>
			<polygon opacity="0.6" fill="#FFCE44" enable-background="new    " points="937.08,371.64 1008.04,195.64 901.16,285.32 			"/>
			<polygon opacity="0.8" fill="#F08262" enable-background="new    " points="937.08,371.64 901.16,285.32 784.52,259.24 			"/>
			<polygon fill="#FFCE44" points="1008.04,195.64 937.08,371.64 946.92,531 			"/>
			<polygon opacity="0.8" fill="#E0B73D" enable-background="new    " points="749.72,521.64 937.08,371.64 784.52,259.24 			"/>
			<polygon opacity="0.6" fill="#F08262" enable-background="new    " points="946.92,531 937.08,371.64 749.72,521.64 			"/>
			<polygon opacity="0.8" fill="#E03469" enable-background="new    " points="477.08,648.28 683.64,686.36 550.04,492.36 			"/>
			<polygon opacity="0.8" fill="#FFCE44" enable-background="new    " points="683.64,686.36 749.72,521.64 550.04,492.36 			"/>
			<polygon opacity="0.4" fill="#8F4492" enable-background="new    " points="194.68,615.64 278.36,428.84 252.44,363.16 			"/>
			<polygon opacity="0.4" fill="#E03469" enable-background="new    " points="194.68,615.64 366.92,412.84 278.36,428.84 			"/>
			<polygon opacity="0.6" fill="#E03469" enable-background="new    " points="278.36,428.84 366.92,412.84 252.44,363.16 			"/>
			<polygon opacity="0.6" fill="#E03469" enable-background="new    " points="194.68,615.64 252.44,363.16 88.12,384.44 			"/>
			<polygon opacity="0.6" fill="#BB2D58" enable-background="new    " points="194.68,615.64 88.12,384.44 -42.28,639.72 			"/>
			<polygon opacity="0.8" fill="#BB2D58" enable-background="new    " points="88.12,384.44 252.44,363.16 221.8,170.28 			"/>
			<polygon opacity="0.8" fill="#E03469" enable-background="new    " points="194.68,615.64 347.4,689.08 366.92,412.84 			"/>
			<polygon fill="#CF3161" points="347.4,689.08 477.08,648.28 366.92,412.84 			"/>
			<polygon opacity="0.6" fill="#6E3F90" enable-background="new    " points="88.12,384.44 221.8,170.28 -26.92,204.04 			"/>
			<polygon fill="#0086BE" points="-26.92,204.04 221.8,170.28 -0.04,160.36 			"/>
			<polygon fill="#00A2D4" points="-0.04,160.36 221.8,170.28 74.84,38.52 			"/>
			<polygon opacity="0.6" fill="#00A2D4" enable-background="new    " points="-0.04,160.36 74.84,38.52 -84.2,-90.28 			"/>
			<polygon fill="#00A2D4" points="74.84,38.52 -17.24,-131.96 -84.2,-90.28 			"/>
			<polygon opacity="0.6" fill="#00A2D4" enable-background="new    " points="74.84,38.52 201.48,-140.52 -17.24,-131.96 			"/>
			<polyline opacity="0.6" fill="#E03469" enable-background="new    " points="-26.92,204.04 -79.08,384.84 88.12,384.44 
				-26.92,204.04 			"/>
			<polyline opacity="0.6" fill="#F08262" enable-background="new    " points="88.12,384.44 -42.28,639.72 -79.08,384.84 
				88.12,384.44 			"/>
		</g>
		<g>
			<polygon opacity="0.6" fill="#0084AC" enable-background="new    " points="208.28,-95.08 173.4,167.32 358.28,92.36 			"/>
			<polygon fill="#FFCE44" points="634.68,239.48 496.68,231.32 660.04,356.6 			"/>
			<polygon opacity="0.8" fill="#FFCE44" enable-background="new    " points="494.76,72.68 496.68,231.32 634.68,239.48 			"/>
			<polygon opacity="0.8" fill="#00A2D4" enable-background="new    " points="494.76,72.68 358.28,92.36 496.68,231.32 			"/>
			<polygon opacity="0.4" fill="#C54190" enable-background="new    " points="496.68,231.32 358.28,92.36 376.2,339.64 			"/>
			<polygon opacity="0.4" fill="#E03469" enable-background="new    " points="173.4,167.32 99.64,331.24 376.2,339.64 			"/>
			<polygon opacity="0.6" fill="#C54190" enable-background="new    " points="358.28,92.36 173.4,167.32 376.2,339.64 			"/>
			<polygon opacity="0.8" fill="#E03469" enable-background="new    " points="376.2,339.64 200.76,443.08 386.2,542.6 			"/>
			<polygon opacity="0.6" fill="#BB2D58" enable-background="new    " points="99.64,331.24 200.76,443.08 376.2,339.64 			"/>
			<polygon fill="#D576AC" points="200.76,443.08 181.88,568.28 386.2,542.6 			"/>
			<polygon opacity="0.6" fill="#E03469" enable-background="new    " points="200.76,443.08 99.64,331.24 181.88,568.28 			"/>
			<polygon fill="#F08262" points="376.2,339.64 386.2,542.6 551.88,505.56 			"/>
			<polygon opacity="0.8" fill="#F08262" enable-background="new    " points="660.04,356.6 551.88,505.56 609.8,522.6 			"/>
			<polygon opacity="0.6" fill="#CE674B" enable-background="new    " points="530.76,384.84 376.2,339.64 551.88,505.56 			"/>
			<polygon fill="#F08262" points="660.04,356.6 530.76,384.84 551.88,505.56 			"/>
			<polygon opacity="0.8" fill="#F08262" enable-background="new    " points="496.68,231.32 376.2,339.64 530.76,384.84 			"/>
			<polygon opacity="0.8" fill="#FFCE44" enable-background="new    " points="496.68,231.32 530.76,384.84 660.04,356.6 			"/>
			<polygon opacity="0.6" fill="#57B99C" enable-background="new    " points="407.88,-65.8 358.28,92.36 494.76,72.68 			"/>
			<polygon opacity="0.8" fill="#00A2D4" enable-background="new    " points="407.88,-65.8 208.28,-95.08 358.28,92.36 			"/>
			<polygon opacity="0.6" fill="#0084AC" enable-background="new    " points="407.88,-65.8 494.76,72.68 591,13.72 			"/>
			<polygon opacity="0.8" fill="#57B99C" enable-background="new    " points="591,13.72 494.76,72.68 634.68,239.48 			"/>
			<polygon opacity="0.6" fill="#489881" enable-background="new    " points="705.56,63.4 591,13.72 634.68,239.48 			"/>
			<polygon fill="#57B99C" points="705.56,63.4 634.68,239.48 736.12,256.28 			"/>
			<polygon fill="#FFCE44" points="736.12,256.28 634.68,239.48 660.04,356.6 			"/>
			<polygon opacity="0.8" fill="#FFCE44" enable-background="new    " points="736.12,256.28 660.04,356.6 883.16,388.04 			"/>
			<polygon fill="#FFCE44" points="883.16,388.04 660.04,356.6 756.52,567.08 			"/>
			<polygon fill="#F08262" points="660.04,356.6 609.8,522.6 756.52,567.08 			"/>
			<polygon opacity="0.8" fill="#E03469" enable-background="new    " points="99.64,331.24 -39.72,564.68 181.88,568.28 			"/>
			<polygon fill="#BB2D58" points="99.64,331.24 -23,419.56 -39.72,564.68 			"/>
			<polygon opacity="0.6" fill="#E03469" enable-background="new    " points="-96.28,306.12 -23,419.56 99.64,331.24 			"/>
			<polygon opacity="0.6" fill="#C54190" enable-background="new    " points="-50.04,230.92 -96.28,306.12 99.64,331.24 			"/>
			<polygon opacity="0.6" fill="#6E3F90" enable-background="new    " points="173.4,167.32 -50.04,230.92 99.64,331.24 			"/>
			<polygon opacity="0.4" fill="#6E3F90" enable-background="new    " points="56.84,141.32 -50.04,230.92 173.4,167.32 			"/>
			<polygon opacity="0.6" fill="#69ABDE" enable-background="new    " points="20.84,54.92 -50.04,230.92 56.84,141.32 			"/>
			<polygon opacity="0.6" fill="#6B7CBB" enable-background="new    " points="20.84,54.92 56.84,141.32 173.4,167.32 			"/>
			<polygon opacity="0.6" fill="#797FBB" enable-background="new    " points="-50.04,230.92 20.84,54.92 11,-104.44 			"/>
			<polygon opacity="0.4" fill="#533F91" enable-background="new    " points="208.28,-95.08 20.84,54.92 173.4,167.32 			"/>
			<polygon opacity="0.4" fill="#00A2D4" enable-background="new    " points="11,-104.44 20.84,54.92 208.28,-95.08 			"/>
			<polygon opacity="0.8" fill="#489881" enable-background="new    " points="763.32,-189.08 679.56,-2.2 705.56,63.4 			"/>
			<polygon opacity="0.8" fill="#57B99C" enable-background="new    " points="679.56,-2.2 591,13.72 705.56,63.4 			"/>
			<polygon opacity="0.6" fill="#489881" enable-background="new    " points="763.32,-189.08 705.56,63.4 869.8,42.2 			"/>
			<polygon opacity="0.8" fill="#489881" enable-background="new    " points="869.8,42.2 705.56,63.4 736.12,256.28 			"/>
			<polygon opacity="0.8" fill="#CCA900" enable-background="new    " points="869.8,42.2 736.12,256.28 984.92,222.52 			"/>
			<polygon opacity="0.6" fill="#489881" enable-background="new    " points="984.92,222.52 736.12,256.28 957.96,266.28 			"/>
			<polygon fill="#FFCE44" points="957.96,266.28 736.12,256.28 883.16,388.04 			"/>
			<polygon opacity="0.8" fill="#CCA900" enable-background="new    " points="957.96,266.28 883.16,388.04 1042.2,516.92 			"/>
			<polygon opacity="0.6" fill="#CCA900" enable-background="new    " points="883.16,388.04 975.16,558.52 1042.2,516.92 			"/>
			<polygon opacity="0.8" fill="#FFCE44" enable-background="new    " points="883.16,388.04 756.52,567.08 975.16,558.52 			"/>
			<polygon opacity="0.4" fill="#B1CA07" enable-background="new    " points="1033.4,-64.92 869.8,42.2 763.32,-189.08 			"/>
			<polyline opacity="0.8" fill="#FFCE44" enable-background="new    " points="1033.4,-64.92 1066.28,54.92 869.8,42.2 
				1033.4,-64.92 			"/>
			<polyline opacity="0.6" fill="#B1CA07" enable-background="new    " points="869.8,42.2 1066.28,54.92 984.92,222.52 869.8,42.2 
							"/>
			<polyline opacity="0.8" fill="#00A2D4" enable-background="new    " points="11,-104.44 -96.04,27.32 -50.04,230.92 11,-104.44 
							"/>
			<polygon opacity="0.4" fill="#00ABE8" enable-background="new    " points="-96.04,27.32 11,-104.44 -80.44,-131.96 			"/>
		</g>
	</g>
</g>
</svg>
